<?xml version="1.0" standalone="no"?>
<!DOCTYPE svg PUBLIC "-//W3C//DTD SVG 20010904//EN"
 "http://www.w3.org/TR/2001/REC-SVG-20010904/DTD/svg10.dtd">
<svg version="1.0" xmlns="http://www.w3.org/2000/svg"
 width="700.000000pt" height="700.000000pt" viewBox="0 0 700.000000 700.000000"
 preserveAspectRatio="xMidYMid meet">
<metadata>
Created by potrace 1.11, written by Peter Selinger 2001-2013
</metadata>
<g transform="translate(0.000000,700.000000) scale(0.100000,-0.100000)"
fill="#000000" stroke="none">
<path d="M3240 6884 c-347 -31 -671 -106 -975 -225 -1036 -406 -1808 -1294
-2065 -2374 -66 -280 -85 -449 -85 -785 0 -305 11 -429 61 -675 218 -1075 951
-1985 1955 -2428 331 -146 718 -245 1079 -277 148 -13 432 -13 580 0 1543 135
2799 1295 3054 2820 65 389 60 823 -15 1210 -101 527 -342 1045 -685 1475
-116 146 -401 428 -544 539 -492 382 -1018 605 -1639 697 -103 15 -201 21
-406 24 -148 1 -290 1 -315 -1z m385 -2889 c382 -100 513 -576 235 -855 -199
-199 -523 -199 -720 0 -199 201 -199 521 0 720 126 126 316 179 485 135z
m-916 -752 c84 -257 271 -445 531 -535 92 -32 100 -33 255 -33 140 0 169 3
235 23 290 91 491 296 575 585 l16 57 1121 0 1121 0 -7 -107 c-13 -205 -73
-495 -149 -718 -258 -760 -815 -1398 -1536 -1760 -320 -160 -636 -254 -1031
-306 -128 -17 -536 -17 -675 0 -571 70 -1066 267 -1510 601 -568 428 -971
1039 -1139 1730 -34 143 -65 334 -73 458 l-6 102 1120 0 1120 0 32 -97z"/>
</g>
</svg>
